<svg 
  id="Capa_1"
  enable-background="new 0 0 499.999 499.999"
  height="40"
  width="40"
  viewBox="0 0 499.999 499.999"
  style="fill: white"
  xmlns="http://www.w3.org/2000/svg">
  <path d="m499.999 250c0-137.848-112.152-250-250-250s-249.999 112.152-249.999 250 112.152 250 250 250h218.75v-31.25h-97.988c76.97-42.664 129.237-124.69 129.237-218.75zm-468.749 0c0-120.62 98.129-218.75 218.75-218.75s218.75 98.129 218.75 218.75-98.13 218.749-218.75 218.749-218.75-98.129-218.75-218.749z"/>
  <path d="m250 187.5c25.848 0 46.875-21.027 46.875-46.875s-21.027-46.875-46.875-46.875-46.875 21.027-46.875 46.875 21.026 46.875 46.875 46.875zm0-62.5c8.621 0 15.625 7.004 15.625 15.625s-7.004 15.625-15.625 15.625-15.625-7.004-15.625-15.625 7.003-15.625 15.625-15.625z"/>
  <path d="m190.567 230.682c7.965-24.567-5.524-51.071-30.09-59.067h-.015c-24.551-7.965-51.071 5.524-59.067 30.106-7.965 24.582 5.524 51.071 30.106 59.067 4.791 1.556 9.644 2.289 14.435 2.289 19.759-.001 38.192-12.604 44.631-32.395zm-59.448-19.302c2.136-6.607 8.286-10.803 14.877-10.803 1.602 0 3.22.244 4.822.763 8.179 2.67 12.68 11.505 10.025 19.684-2.655 8.209-11.566 12.695-19.684 10.04-8.194-2.655-12.695-11.506-10.04-19.684z"/>
  <path d="m213.272 300.552c-20.904-15.167-50.278-10.498-65.475 10.376-7.37 10.132-10.345 22.522-8.377 34.882 1.953 12.375 8.606 23.239 18.738 30.594 8.102 5.89 17.639 8.972 27.451 8.972 2.472 0 4.959-.198 7.431-.595 12.375-1.953 23.239-8.606 30.609-18.753 15.166-20.906 10.512-50.279-10.377-65.476zm-14.908 47.119c-2.457 3.372-6.088 5.6-10.208 6.256-4.089.565-8.255-.351-11.627-2.792-3.372-2.457-5.6-6.088-6.256-10.208-.641-4.12.351-8.255 2.792-11.627 3.067-4.196 7.828-6.439 12.665-6.439 3.189 0 6.409.977 9.171 2.975 6.973 5.065 8.514 14.861 3.463 21.835z"/>
  <path d="m286.727 300.567c-20.889 15.182-25.543 44.556-10.376 65.46l.015.015c7.355 10.132 18.219 16.785 30.594 18.738 2.472.397 4.959.595 7.431.595 9.811 0 19.363-3.082 27.451-8.972 10.132-7.355 16.785-18.219 18.738-30.594 1.968-12.36-1.007-24.75-8.377-34.882-15.168-20.904-44.571-25.557-65.476-10.36zm36.743 50.568c-3.387 2.457-7.507 3.387-11.627 2.792-4.12-.656-7.751-2.884-10.208-6.256-5.051-6.973-3.494-16.769 3.464-21.82 6.927-5.081 16.769-3.525 21.835 3.448 2.441 3.372 3.433 7.507 2.792 11.627-.656 4.12-2.883 7.752-6.256 10.209z"/>
  <path d="m339.522 171.615c-24.567 7.996-38.055 34.5-30.09 59.082 6.439 19.775 24.872 32.379 44.632 32.379 4.791 0 9.644-.732 14.435-2.289h.015c24.567-7.996 38.055-34.485 30.09-59.082-7.995-24.566-34.515-38.055-59.082-30.09zm19.333 59.448c-8.224 2.67-17.044-1.831-19.699-10.025s1.846-17.029 10.025-19.699c1.602-.519 3.22-.763 4.822-.763 6.592 0 12.741 4.196 14.877 10.788 2.655 8.194-1.846 17.029-10.025 19.699z"/>
  <path d="m272.097 227.902c12.204 12.204 12.204 31.99 0 44.194s-31.99 12.204-44.194 0-12.204-31.99 0-44.194c12.204-12.203 31.99-12.203 44.194 0"/>
</svg>